<svg xmlns="http://www.w3.org/2000/svg" xmlns:xlink="http://www.w3.org/1999/xlink" width="600" height="400" viewBox="0 0 2400 1600">
<defs>
  <clipPath id="clip780">
    <rect x="0" y="0" width="2400" height="1600"></rect>
  </clipPath>
</defs>
<path clip-path="url(#clip780)" d="M0 1600 L2400 1600 L2400 0 L0 0  Z" fill="#ffffff" fill-rule="evenodd" fill-opacity="1"></path>
<defs>
  <clipPath id="clip781">
    <rect x="480" y="0" width="1681" height="1600"></rect>
  </clipPath>
</defs>
<path clip-path="url(#clip780)" d="M205.121 1423.18 L2352.76 1423.18 L2352.76 123.472 L205.121 123.472  Z" fill="#ffffff" fill-rule="evenodd" fill-opacity="1"></path>
<defs>
  <clipPath id="clip782">
    <rect x="205" y="123" width="2149" height="1301"></rect>
  </clipPath>
</defs>
<polyline clip-path="url(#clip782)" style="stroke:#000000; stroke-linecap:round; stroke-linejoin:round; stroke-width:2; stroke-opacity:0.1; fill:none" points="468.51,1423.18 468.51,123.472 "></polyline>
<polyline clip-path="url(#clip782)" style="stroke:#000000; stroke-linecap:round; stroke-linejoin:round; stroke-width:2; stroke-opacity:0.1; fill:none" points="873.724,1423.18 873.724,123.472 "></polyline>
<polyline clip-path="url(#clip782)" style="stroke:#000000; stroke-linecap:round; stroke-linejoin:round; stroke-width:2; stroke-opacity:0.1; fill:none" points="1278.94,1423.18 1278.94,123.472 "></polyline>
<polyline clip-path="url(#clip782)" style="stroke:#000000; stroke-linecap:round; stroke-linejoin:round; stroke-width:2; stroke-opacity:0.1; fill:none" points="1684.15,1423.18 1684.15,123.472 "></polyline>
<polyline clip-path="url(#clip782)" style="stroke:#000000; stroke-linecap:round; stroke-linejoin:round; stroke-width:2; stroke-opacity:0.1; fill:none" points="2089.37,1423.18 2089.37,123.472 "></polyline>
<polyline clip-path="url(#clip780)" style="stroke:#000000; stroke-linecap:round; stroke-linejoin:round; stroke-width:4; stroke-opacity:1; fill:none" points="205.121,1423.18 2352.76,1423.18 "></polyline>
<polyline clip-path="url(#clip780)" style="stroke:#000000; stroke-linecap:round; stroke-linejoin:round; stroke-width:4; stroke-opacity:1; fill:none" points="468.51,1423.18 468.51,1404.28 "></polyline>
<polyline clip-path="url(#clip780)" style="stroke:#000000; stroke-linecap:round; stroke-linejoin:round; stroke-width:4; stroke-opacity:1; fill:none" points="873.724,1423.18 873.724,1404.28 "></polyline>
<polyline clip-path="url(#clip780)" style="stroke:#000000; stroke-linecap:round; stroke-linejoin:round; stroke-width:4; stroke-opacity:1; fill:none" points="1278.94,1423.18 1278.94,1404.28 "></polyline>
<polyline clip-path="url(#clip780)" style="stroke:#000000; stroke-linecap:round; stroke-linejoin:round; stroke-width:4; stroke-opacity:1; fill:none" points="1684.15,1423.18 1684.15,1404.28 "></polyline>
<polyline clip-path="url(#clip780)" style="stroke:#000000; stroke-linecap:round; stroke-linejoin:round; stroke-width:4; stroke-opacity:1; fill:none" points="2089.37,1423.18 2089.37,1404.28 "></polyline>
<path clip-path="url(#clip780)" d="M422.573 1468.75 L452.249 1468.75 L452.249 1472.69 L422.573 1472.69 L422.573 1468.75 Z" fill="#000000" fill-rule="nonzero" fill-opacity="1"></path><path clip-path="url(#clip780)" d="M475.188 1455.09 L463.383 1473.54 L475.188 1473.54 L475.188 1455.09 M473.962 1451.02 L479.841 1451.02 L479.841 1473.54 L484.772 1473.54 L484.772 1477.43 L479.841 1477.43 L479.841 1485.58 L475.188 1485.58 L475.188 1477.43 L459.587 1477.43 L459.587 1472.92 L473.962 1451.02 Z" fill="#000000" fill-rule="nonzero" fill-opacity="1"></path><path clip-path="url(#clip780)" d="M502.503 1454.1 Q498.892 1454.1 497.063 1457.66 Q495.258 1461.2 495.258 1468.33 Q495.258 1475.44 497.063 1479.01 Q498.892 1482.55 502.503 1482.55 Q506.137 1482.55 507.943 1479.01 Q509.772 1475.44 509.772 1468.33 Q509.772 1461.2 507.943 1457.66 Q506.137 1454.1 502.503 1454.1 M502.503 1450.39 Q508.313 1450.39 511.369 1455 Q514.447 1459.58 514.447 1468.33 Q514.447 1477.06 511.369 1481.67 Q508.313 1486.25 502.503 1486.25 Q496.693 1486.25 493.614 1481.67 Q490.559 1477.06 490.559 1468.33 Q490.559 1459.58 493.614 1455 Q496.693 1450.39 502.503 1450.39 Z" fill="#000000" fill-rule="nonzero" fill-opacity="1"></path><path clip-path="url(#clip780)" d="M827.787 1468.75 L857.463 1468.75 L857.463 1472.69 L827.787 1472.69 L827.787 1468.75 Z" fill="#000000" fill-rule="nonzero" fill-opacity="1"></path><path clip-path="url(#clip780)" d="M871.583 1481.64 L887.902 1481.64 L887.902 1485.58 L865.958 1485.58 L865.958 1481.64 Q868.62 1478.89 873.203 1474.26 Q877.81 1469.61 878.99 1468.27 Q881.236 1465.74 882.115 1464.01 Q883.018 1462.25 883.018 1460.56 Q883.018 1457.8 881.074 1456.07 Q879.153 1454.33 876.051 1454.33 Q873.852 1454.33 871.398 1455.09 Q868.967 1455.86 866.19 1457.41 L866.19 1452.69 Q869.014 1451.55 871.467 1450.97 Q873.921 1450.39 875.958 1450.39 Q881.328 1450.39 884.523 1453.08 Q887.717 1455.77 887.717 1460.26 Q887.717 1462.39 886.907 1464.31 Q886.12 1466.2 884.014 1468.8 Q883.435 1469.47 880.333 1472.69 Q877.231 1475.88 871.583 1481.64 Z" fill="#000000" fill-rule="nonzero" fill-opacity="1"></path><path clip-path="url(#clip780)" d="M907.717 1454.1 Q904.106 1454.1 902.277 1457.66 Q900.472 1461.2 900.472 1468.33 Q900.472 1475.44 902.277 1479.01 Q904.106 1482.55 907.717 1482.55 Q911.351 1482.55 913.157 1479.01 Q914.986 1475.44 914.986 1468.33 Q914.986 1461.2 913.157 1457.66 Q911.351 1454.1 907.717 1454.1 M907.717 1450.39 Q913.527 1450.39 916.583 1455 Q919.662 1459.58 919.662 1468.33 Q919.662 1477.06 916.583 1481.67 Q913.527 1486.25 907.717 1486.25 Q901.907 1486.25 898.828 1481.67 Q895.773 1477.06 895.773 1468.33 Q895.773 1459.58 898.828 1455 Q901.907 1450.39 907.717 1450.39 Z" fill="#000000" fill-rule="nonzero" fill-opacity="1"></path><path clip-path="url(#clip780)" d="M1278.94 1454.1 Q1275.33 1454.1 1273.5 1457.66 Q1271.69 1461.2 1271.69 1468.33 Q1271.69 1475.44 1273.5 1479.01 Q1275.33 1482.55 1278.94 1482.55 Q1282.57 1482.55 1284.38 1479.01 Q1286.21 1475.44 1286.21 1468.33 Q1286.21 1461.2 1284.38 1457.66 Q1282.57 1454.1 1278.94 1454.1 M1278.94 1450.39 Q1284.75 1450.39 1287.8 1455 Q1290.88 1459.58 1290.88 1468.33 Q1290.88 1477.06 1287.8 1481.67 Q1284.75 1486.25 1278.94 1486.25 Q1273.13 1486.25 1270.05 1481.67 Q1266.99 1477.06 1266.99 1468.33 Q1266.99 1459.58 1270.05 1455 Q1273.13 1450.39 1278.94 1450.39 Z" fill="#000000" fill-rule="nonzero" fill-opacity="1"></path><path clip-path="url(#clip780)" d="M1662.93 1481.64 L1679.25 1481.64 L1679.25 1485.58 L1657.3 1485.58 L1657.3 1481.64 Q1659.96 1478.89 1664.55 1474.26 Q1669.15 1469.61 1670.33 1468.27 Q1672.58 1465.74 1673.46 1464.01 Q1674.36 1462.25 1674.36 1460.56 Q1674.36 1457.8 1672.42 1456.07 Q1670.5 1454.33 1667.39 1454.33 Q1665.19 1454.33 1662.74 1455.09 Q1660.31 1455.86 1657.53 1457.41 L1657.53 1452.69 Q1660.36 1451.55 1662.81 1450.97 Q1665.26 1450.39 1667.3 1450.39 Q1672.67 1450.39 1675.87 1453.08 Q1679.06 1455.77 1679.06 1460.26 Q1679.06 1462.39 1678.25 1464.31 Q1677.46 1466.2 1675.36 1468.8 Q1674.78 1469.47 1671.68 1472.69 Q1668.57 1475.88 1662.93 1481.64 Z" fill="#000000" fill-rule="nonzero" fill-opacity="1"></path><path clip-path="url(#clip780)" d="M1699.06 1454.1 Q1695.45 1454.1 1693.62 1457.66 Q1691.81 1461.2 1691.81 1468.33 Q1691.81 1475.44 1693.62 1479.01 Q1695.45 1482.55 1699.06 1482.55 Q1702.69 1482.55 1704.5 1479.01 Q1706.33 1475.44 1706.33 1468.33 Q1706.33 1461.2 1704.5 1457.66 Q1702.69 1454.1 1699.06 1454.1 M1699.06 1450.39 Q1704.87 1450.39 1707.93 1455 Q1711 1459.58 1711 1468.33 Q1711 1477.06 1707.93 1481.67 Q1704.87 1486.25 1699.06 1486.25 Q1693.25 1486.25 1690.17 1481.67 Q1687.12 1477.06 1687.12 1468.33 Q1687.12 1459.58 1690.17 1455 Q1693.25 1450.39 1699.06 1450.39 Z" fill="#000000" fill-rule="nonzero" fill-opacity="1"></path><path clip-path="url(#clip780)" d="M2077.54 1455.09 L2065.73 1473.54 L2077.54 1473.54 L2077.54 1455.09 M2076.31 1451.02 L2082.19 1451.02 L2082.19 1473.54 L2087.12 1473.54 L2087.12 1477.43 L2082.19 1477.43 L2082.19 1485.58 L2077.54 1485.58 L2077.54 1477.43 L2061.94 1477.43 L2061.94 1472.92 L2076.31 1451.02 Z" fill="#000000" fill-rule="nonzero" fill-opacity="1"></path><path clip-path="url(#clip780)" d="M2104.85 1454.1 Q2101.24 1454.1 2099.41 1457.66 Q2097.61 1461.2 2097.61 1468.33 Q2097.61 1475.44 2099.41 1479.01 Q2101.24 1482.55 2104.85 1482.55 Q2108.49 1482.55 2110.29 1479.01 Q2112.12 1475.44 2112.12 1468.33 Q2112.12 1461.2 2110.29 1457.66 Q2108.49 1454.1 2104.85 1454.1 M2104.85 1450.39 Q2110.66 1450.39 2113.72 1455 Q2116.8 1459.58 2116.8 1468.33 Q2116.8 1477.06 2113.72 1481.67 Q2110.66 1486.25 2104.85 1486.25 Q2099.04 1486.25 2095.96 1481.67 Q2092.91 1477.06 2092.91 1468.33 Q2092.91 1459.58 2095.96 1455 Q2099.04 1450.39 2104.85 1450.39 Z" fill="#000000" fill-rule="nonzero" fill-opacity="1"></path><path clip-path="url(#clip780)" d="M849.158 1550.12 Q842.06 1550.12 839.323 1551.75 Q836.585 1553.37 836.585 1557.29 Q836.585 1560.4 838.623 1562.25 Q840.691 1564.07 844.224 1564.07 Q849.094 1564.07 852.022 1560.63 Q854.982 1557.16 854.982 1551.43 L854.982 1550.12 L849.158 1550.12 M860.839 1547.71 L860.839 1568.04 L854.982 1568.04 L854.982 1562.63 Q852.977 1565.88 849.985 1567.44 Q846.993 1568.97 842.665 1568.97 Q837.19 1568.97 833.944 1565.91 Q830.729 1562.82 830.729 1557.67 Q830.729 1551.65 834.739 1548.6 Q838.782 1545.54 846.771 1545.54 L854.982 1545.54 L854.982 1544.97 Q854.982 1540.93 852.309 1538.73 Q849.667 1536.5 844.861 1536.5 Q841.805 1536.5 838.909 1537.23 Q836.013 1537.97 833.339 1539.43 L833.339 1534.02 Q836.554 1532.78 839.577 1532.17 Q842.601 1531.54 845.466 1531.54 Q853.2 1531.54 857.019 1535.55 Q860.839 1539.56 860.839 1547.71 Z" fill="#000000" fill-rule="nonzero" fill-opacity="1"></path><path clip-path="url(#clip780)" d="M898.556 1533.76 L898.556 1539.24 Q896.073 1537.87 893.559 1537.2 Q891.076 1536.5 888.53 1536.5 Q882.832 1536.5 879.681 1540.13 Q876.53 1543.73 876.53 1550.25 Q876.53 1556.78 879.681 1560.4 Q882.832 1564 888.53 1564 Q891.076 1564 893.559 1563.33 Q896.073 1562.63 898.556 1561.26 L898.556 1566.68 Q896.105 1567.82 893.463 1568.39 Q890.853 1568.97 887.893 1568.97 Q879.84 1568.97 875.098 1563.91 Q870.356 1558.85 870.356 1550.25 Q870.356 1541.53 875.13 1536.53 Q879.936 1531.54 888.275 1531.54 Q890.98 1531.54 893.559 1532.11 Q896.137 1532.65 898.556 1533.76 Z" fill="#000000" fill-rule="nonzero" fill-opacity="1"></path><path clip-path="url(#clip780)" d="M914.534 1522.27 L914.534 1532.4 L926.597 1532.4 L926.597 1536.95 L914.534 1536.95 L914.534 1556.3 Q914.534 1560.66 915.711 1561.9 Q916.921 1563.14 920.581 1563.14 L926.597 1563.14 L926.597 1568.04 L920.581 1568.04 Q913.802 1568.04 911.223 1565.53 Q908.645 1562.98 908.645 1556.3 L908.645 1536.95 L904.348 1536.95 L904.348 1532.4 L908.645 1532.4 L908.645 1522.27 L914.534 1522.27 Z" fill="#000000" fill-rule="nonzero" fill-opacity="1"></path><path clip-path="url(#clip780)" d="M948.113 1536.5 Q943.402 1536.5 940.665 1540.19 Q937.928 1543.85 937.928 1550.25 Q937.928 1556.65 940.633 1560.34 Q943.37 1564 948.113 1564 Q952.791 1564 955.529 1560.31 Q958.266 1556.62 958.266 1550.25 Q958.266 1543.92 955.529 1540.23 Q952.791 1536.5 948.113 1536.5 M948.113 1531.54 Q955.752 1531.54 960.112 1536.5 Q964.473 1541.47 964.473 1550.25 Q964.473 1559 960.112 1564 Q955.752 1568.97 948.113 1568.97 Q940.442 1568.97 936.081 1564 Q931.753 1559 931.753 1550.25 Q931.753 1541.47 936.081 1536.5 Q940.442 1531.54 948.113 1531.54 Z" fill="#000000" fill-rule="nonzero" fill-opacity="1"></path><path clip-path="url(#clip780)" d="M994.837 1537.87 Q993.85 1537.3 992.673 1537.04 Q991.527 1536.76 990.126 1536.76 Q985.161 1536.76 982.487 1540 Q979.846 1543.22 979.846 1549.27 L979.846 1568.04 L973.957 1568.04 L973.957 1532.4 L979.846 1532.4 L979.846 1537.93 Q981.692 1534.69 984.652 1533.13 Q987.612 1531.54 991.845 1531.54 Q992.45 1531.54 993.182 1531.63 Q993.914 1531.7 994.805 1531.85 L994.837 1537.87 Z" fill="#000000" fill-rule="nonzero" fill-opacity="1"></path><path clip-path="url(#clip780)" d="M1028.07 1578.87 L1028.07 1583.42 L994.2 1583.42 L994.2 1578.87 L1028.07 1578.87 Z" fill="#000000" fill-rule="nonzero" fill-opacity="1"></path><path clip-path="url(#clip780)" d="M1057.03 1537.81 L1057.03 1518.52 L1062.89 1518.52 L1062.89 1568.04 L1057.03 1568.04 L1057.03 1562.7 Q1055.18 1565.88 1052.35 1567.44 Q1049.55 1568.97 1045.6 1568.97 Q1039.14 1568.97 1035.07 1563.81 Q1031.03 1558.65 1031.03 1550.25 Q1031.03 1541.85 1035.07 1536.69 Q1039.14 1531.54 1045.6 1531.54 Q1049.55 1531.54 1052.35 1533.1 Q1055.18 1534.62 1057.03 1537.81 M1037.07 1550.25 Q1037.07 1556.71 1039.72 1560.4 Q1042.39 1564.07 1047.04 1564.07 Q1051.68 1564.07 1054.36 1560.4 Q1057.03 1556.71 1057.03 1550.25 Q1057.03 1543.79 1054.36 1540.13 Q1051.68 1536.44 1047.04 1536.44 Q1042.39 1536.44 1039.72 1540.13 Q1037.07 1543.79 1037.07 1550.25 Z" fill="#000000" fill-rule="nonzero" fill-opacity="1"></path><path clip-path="url(#clip780)" d="M1074.95 1532.4 L1080.81 1532.4 L1080.81 1568.04 L1074.95 1568.04 L1074.95 1532.4 M1074.95 1518.52 L1080.81 1518.52 L1080.81 1525.93 L1074.95 1525.93 L1074.95 1518.52 Z" fill="#000000" fill-rule="nonzero" fill-opacity="1"></path><path clip-path="url(#clip780)" d="M1115.79 1533.45 L1115.79 1538.98 Q1113.3 1537.71 1110.63 1537.07 Q1107.96 1536.44 1105.09 1536.44 Q1100.73 1536.44 1098.53 1537.77 Q1096.37 1539.11 1096.37 1541.79 Q1096.37 1543.82 1097.93 1545 Q1099.49 1546.15 1104.2 1547.2 L1106.2 1547.64 Q1112.44 1548.98 1115.05 1551.43 Q1117.7 1553.85 1117.7 1558.21 Q1117.7 1563.17 1113.75 1566.07 Q1109.83 1568.97 1102.96 1568.97 Q1100.09 1568.97 1096.97 1568.39 Q1093.89 1567.85 1090.45 1566.74 L1090.45 1560.69 Q1093.7 1562.38 1096.85 1563.24 Q1100 1564.07 1103.09 1564.07 Q1107.22 1564.07 1109.45 1562.66 Q1111.68 1561.23 1111.68 1558.65 Q1111.68 1556.27 1110.06 1554.99 Q1108.46 1553.72 1103.02 1552.54 L1100.99 1552.07 Q1095.54 1550.92 1093.12 1548.56 Q1090.7 1546.18 1090.7 1542.04 Q1090.7 1537.01 1094.27 1534.27 Q1097.83 1531.54 1104.39 1531.54 Q1107.64 1531.54 1110.5 1532.01 Q1113.37 1532.49 1115.79 1533.45 Z" fill="#000000" fill-rule="nonzero" fill-opacity="1"></path><path clip-path="url(#clip780)" d="M1132.81 1522.27 L1132.81 1532.4 L1144.88 1532.4 L1144.88 1536.95 L1132.81 1536.95 L1132.81 1556.3 Q1132.81 1560.66 1133.99 1561.9 Q1135.2 1563.14 1138.86 1563.14 L1144.88 1563.14 L1144.88 1568.04 L1138.86 1568.04 Q1132.08 1568.04 1129.5 1565.53 Q1126.93 1562.98 1126.93 1556.3 L1126.93 1536.95 L1122.63 1536.95 L1122.63 1532.4 L1126.93 1532.4 L1126.93 1522.27 L1132.81 1522.27 Z" fill="#000000" fill-rule="nonzero" fill-opacity="1"></path><path clip-path="url(#clip780)" d="M1168.78 1550.12 Q1161.68 1550.12 1158.94 1551.75 Q1156.21 1553.37 1156.21 1557.29 Q1156.21 1560.4 1158.24 1562.25 Q1160.31 1564.07 1163.85 1564.07 Q1168.72 1564.07 1171.64 1560.63 Q1174.6 1557.16 1174.6 1551.43 L1174.6 1550.12 L1168.78 1550.12 M1180.46 1547.71 L1180.46 1568.04 L1174.6 1568.04 L1174.6 1562.63 Q1172.6 1565.88 1169.61 1567.44 Q1166.62 1568.97 1162.29 1568.97 Q1156.81 1568.97 1153.57 1565.91 Q1150.35 1562.82 1150.35 1557.67 Q1150.35 1551.65 1154.36 1548.6 Q1158.4 1545.54 1166.39 1545.54 L1174.6 1545.54 L1174.6 1544.97 Q1174.6 1540.93 1171.93 1538.73 Q1169.29 1536.5 1164.48 1536.5 Q1161.43 1536.5 1158.53 1537.23 Q1155.63 1537.97 1152.96 1539.43 L1152.96 1534.02 Q1156.18 1532.78 1159.2 1532.17 Q1162.22 1531.54 1165.09 1531.54 Q1172.82 1531.54 1176.64 1535.55 Q1180.46 1539.56 1180.46 1547.71 Z" fill="#000000" fill-rule="nonzero" fill-opacity="1"></path><path clip-path="url(#clip780)" d="M1222.16 1546.53 L1222.16 1568.04 L1216.3 1568.04 L1216.3 1546.72 Q1216.3 1541.66 1214.33 1539.14 Q1212.35 1536.63 1208.41 1536.63 Q1203.66 1536.63 1200.93 1539.65 Q1198.19 1542.68 1198.19 1547.9 L1198.19 1568.04 L1192.3 1568.04 L1192.3 1532.4 L1198.19 1532.4 L1198.19 1537.93 Q1200.29 1534.72 1203.12 1533.13 Q1205.99 1531.54 1209.71 1531.54 Q1215.85 1531.54 1219.01 1535.36 Q1222.16 1539.14 1222.16 1546.53 Z" fill="#000000" fill-rule="nonzero" fill-opacity="1"></path><path clip-path="url(#clip780)" d="M1259.49 1533.76 L1259.49 1539.24 Q1257.01 1537.87 1254.49 1537.2 Q1252.01 1536.5 1249.47 1536.5 Q1243.77 1536.5 1240.62 1540.13 Q1237.47 1543.73 1237.47 1550.25 Q1237.47 1556.78 1240.62 1560.4 Q1243.77 1564 1249.47 1564 Q1252.01 1564 1254.49 1563.33 Q1257.01 1562.63 1259.49 1561.26 L1259.49 1566.68 Q1257.04 1567.82 1254.4 1568.39 Q1251.79 1568.97 1248.83 1568.97 Q1240.78 1568.97 1236.03 1563.91 Q1231.29 1558.85 1231.29 1550.25 Q1231.29 1541.53 1236.07 1536.53 Q1240.87 1531.54 1249.21 1531.54 Q1251.92 1531.54 1254.49 1532.11 Q1257.07 1532.65 1259.49 1533.76 Z" fill="#000000" fill-rule="nonzero" fill-opacity="1"></path><path clip-path="url(#clip780)" d="M1300.17 1548.76 L1300.17 1551.62 L1273.24 1551.62 Q1273.62 1557.67 1276.87 1560.85 Q1280.15 1564 1285.97 1564 Q1289.35 1564 1292.5 1563.17 Q1295.68 1562.35 1298.8 1560.69 L1298.8 1566.23 Q1295.65 1567.57 1292.34 1568.27 Q1289.03 1568.97 1285.62 1568.97 Q1277.09 1568.97 1272.1 1564 Q1267.13 1559.04 1267.13 1550.57 Q1267.13 1541.82 1271.84 1536.69 Q1276.58 1531.54 1284.6 1531.54 Q1291.8 1531.54 1295.97 1536.18 Q1300.17 1540.8 1300.17 1548.76 M1294.31 1547.04 Q1294.25 1542.23 1291.61 1539.37 Q1289 1536.5 1284.67 1536.5 Q1279.77 1536.5 1276.81 1539.27 Q1273.88 1542.04 1273.43 1547.07 L1294.31 1547.04 Z" fill="#000000" fill-rule="nonzero" fill-opacity="1"></path><path clip-path="url(#clip780)" d="M1336.87 1578.87 L1336.87 1583.42 L1303 1583.42 L1303 1578.87 L1336.87 1578.87 Z" fill="#000000" fill-rule="nonzero" fill-opacity="1"></path><path clip-path="url(#clip780)" d="M1342.37 1532.4 L1348.23 1532.4 L1348.23 1568.68 Q1348.23 1575.49 1345.62 1578.55 Q1343.04 1581.6 1337.28 1581.6 L1335.05 1581.6 L1335.05 1576.64 L1336.61 1576.64 Q1339.95 1576.64 1341.16 1575.08 Q1342.37 1573.55 1342.37 1568.68 L1342.37 1532.4 M1342.37 1518.52 L1348.23 1518.52 L1348.23 1525.93 L1342.37 1525.93 L1342.37 1518.52 Z" fill="#000000" fill-rule="nonzero" fill-opacity="1"></path><path clip-path="url(#clip780)" d="M1359.88 1553.98 L1359.88 1532.4 L1365.73 1532.4 L1365.73 1553.75 Q1365.73 1558.81 1367.71 1561.36 Q1369.68 1563.87 1373.63 1563.87 Q1378.37 1563.87 1381.11 1560.85 Q1383.88 1557.83 1383.88 1552.61 L1383.88 1532.4 L1389.73 1532.4 L1389.73 1568.04 L1383.88 1568.04 L1383.88 1562.57 Q1381.74 1565.82 1378.91 1567.41 Q1376.11 1568.97 1372.39 1568.97 Q1366.24 1568.97 1363.06 1565.15 Q1359.88 1561.33 1359.88 1553.98 M1374.62 1531.54 L1374.62 1531.54 Z" fill="#000000" fill-rule="nonzero" fill-opacity="1"></path><path clip-path="url(#clip780)" d="M1431.43 1546.53 L1431.43 1568.04 L1425.57 1568.04 L1425.57 1546.72 Q1425.57 1541.66 1423.6 1539.14 Q1421.63 1536.63 1417.68 1536.63 Q1412.94 1536.63 1410.2 1539.65 Q1407.46 1542.68 1407.46 1547.9 L1407.46 1568.04 L1401.57 1568.04 L1401.57 1532.4 L1407.46 1532.4 L1407.46 1537.93 Q1409.56 1534.72 1412.4 1533.13 Q1415.26 1531.54 1418.98 1531.54 Q1425.13 1531.54 1428.28 1535.36 Q1431.43 1539.14 1431.43 1546.53 Z" fill="#000000" fill-rule="nonzero" fill-opacity="1"></path><path clip-path="url(#clip780)" d="M1468.76 1533.76 L1468.76 1539.24 Q1466.28 1537.87 1463.77 1537.2 Q1461.28 1536.5 1458.74 1536.5 Q1453.04 1536.5 1449.89 1540.13 Q1446.74 1543.73 1446.74 1550.25 Q1446.74 1556.78 1449.89 1560.4 Q1453.04 1564 1458.74 1564 Q1461.28 1564 1463.77 1563.33 Q1466.28 1562.63 1468.76 1561.26 L1468.76 1566.68 Q1466.31 1567.82 1463.67 1568.39 Q1461.06 1568.97 1458.1 1568.97 Q1450.05 1568.97 1445.31 1563.91 Q1440.56 1558.85 1440.56 1550.25 Q1440.56 1541.53 1445.34 1536.53 Q1450.14 1531.54 1458.48 1531.54 Q1461.19 1531.54 1463.77 1532.11 Q1466.34 1532.65 1468.76 1533.76 Z" fill="#000000" fill-rule="nonzero" fill-opacity="1"></path><path clip-path="url(#clip780)" d="M1484.74 1522.27 L1484.74 1532.4 L1496.8 1532.4 L1496.8 1536.95 L1484.74 1536.95 L1484.74 1556.3 Q1484.74 1560.66 1485.92 1561.9 Q1487.13 1563.14 1490.79 1563.14 L1496.8 1563.14 L1496.8 1568.04 L1490.79 1568.04 Q1484.01 1568.04 1481.43 1565.53 Q1478.85 1562.98 1478.85 1556.3 L1478.85 1536.95 L1474.56 1536.95 L1474.56 1532.4 L1478.85 1532.4 L1478.85 1522.27 L1484.74 1522.27 Z" fill="#000000" fill-rule="nonzero" fill-opacity="1"></path><path clip-path="url(#clip780)" d="M1504.51 1532.4 L1510.36 1532.4 L1510.36 1568.04 L1504.51 1568.04 L1504.51 1532.4 M1504.51 1518.52 L1510.36 1518.52 L1510.36 1525.93 L1504.51 1525.93 L1504.51 1518.52 Z" fill="#000000" fill-rule="nonzero" fill-opacity="1"></path><path clip-path="url(#clip780)" d="M1536.43 1536.5 Q1531.72 1536.5 1528.98 1540.19 Q1526.25 1543.85 1526.25 1550.25 Q1526.25 1556.65 1528.95 1560.34 Q1531.69 1564 1536.43 1564 Q1541.11 1564 1543.85 1560.31 Q1546.58 1556.62 1546.58 1550.25 Q1546.58 1543.92 1543.85 1540.23 Q1541.11 1536.5 1536.43 1536.5 M1536.43 1531.54 Q1544.07 1531.54 1548.43 1536.5 Q1552.79 1541.47 1552.79 1550.25 Q1552.79 1559 1548.43 1564 Q1544.07 1568.97 1536.43 1568.97 Q1528.76 1568.97 1524.4 1564 Q1520.07 1559 1520.07 1550.25 Q1520.07 1541.47 1524.4 1536.5 Q1528.76 1531.54 1536.43 1531.54 Z" fill="#000000" fill-rule="nonzero" fill-opacity="1"></path><path clip-path="url(#clip780)" d="M1592.13 1546.53 L1592.13 1568.04 L1586.27 1568.04 L1586.27 1546.72 Q1586.27 1541.66 1584.3 1539.14 Q1582.33 1536.63 1578.38 1536.63 Q1573.64 1536.63 1570.9 1539.65 Q1568.16 1542.68 1568.16 1547.9 L1568.16 1568.04 L1562.28 1568.04 L1562.28 1532.4 L1568.16 1532.4 L1568.16 1537.93 Q1570.27 1534.72 1573.1 1533.13 Q1575.96 1531.54 1579.69 1531.54 Q1585.83 1531.54 1588.98 1535.36 Q1592.13 1539.14 1592.13 1546.53 Z" fill="#000000" fill-rule="nonzero" fill-opacity="1"></path><path clip-path="url(#clip780)" d="M1638.6 1518.58 Q1634.34 1525.9 1632.27 1533.06 Q1630.2 1540.23 1630.2 1547.58 Q1630.2 1554.93 1632.27 1562.16 Q1634.37 1569.35 1638.6 1576.64 L1633.51 1576.64 Q1628.73 1569.16 1626.35 1561.93 Q1623.99 1554.71 1623.99 1547.58 Q1623.99 1540.48 1626.35 1533.29 Q1628.7 1526.09 1633.51 1518.58 L1638.6 1518.58 Z" fill="#000000" fill-rule="nonzero" fill-opacity="1"></path><path clip-path="url(#clip780)" d="M1677.72 1539.24 Q1679.91 1535.29 1682.97 1533.41 Q1686.03 1531.54 1690.16 1531.54 Q1695.73 1531.54 1698.76 1535.45 Q1701.78 1539.33 1701.78 1546.53 L1701.78 1568.04 L1695.89 1568.04 L1695.89 1546.72 Q1695.89 1541.59 1694.08 1539.11 Q1692.26 1536.63 1688.54 1536.63 Q1683.99 1536.63 1681.35 1539.65 Q1678.7 1542.68 1678.7 1547.9 L1678.7 1568.04 L1672.82 1568.04 L1672.82 1546.72 Q1672.82 1541.56 1671 1539.11 Q1669.19 1536.63 1665.4 1536.63 Q1660.91 1536.63 1658.27 1539.68 Q1655.63 1542.71 1655.63 1547.9 L1655.63 1568.04 L1649.74 1568.04 L1649.74 1532.4 L1655.63 1532.4 L1655.63 1537.93 Q1657.63 1534.66 1660.44 1533.1 Q1663.24 1531.54 1667.09 1531.54 Q1670.97 1531.54 1673.68 1533.51 Q1676.41 1535.48 1677.72 1539.24 Z" fill="#000000" fill-rule="nonzero" fill-opacity="1"></path><path clip-path="url(#clip780)" d="M1712.54 1518.58 L1717.63 1518.58 Q1722.41 1526.09 1724.76 1533.29 Q1727.15 1540.48 1727.15 1547.58 Q1727.15 1554.71 1724.76 1561.93 Q1722.41 1569.16 1717.63 1576.64 L1712.54 1576.64 Q1716.77 1569.35 1718.84 1562.16 Q1720.94 1554.93 1720.94 1547.58 Q1720.94 1540.23 1718.84 1533.06 Q1716.77 1525.9 1712.54 1518.58 Z" fill="#000000" fill-rule="nonzero" fill-opacity="1"></path><polyline clip-path="url(#clip782)" style="stroke:#000000; stroke-linecap:round; stroke-linejoin:round; stroke-width:2; stroke-opacity:0.1; fill:none" points="205.121,1386.4 2352.76,1386.4 "></polyline>
<polyline clip-path="url(#clip782)" style="stroke:#000000; stroke-linecap:round; stroke-linejoin:round; stroke-width:2; stroke-opacity:0.1; fill:none" points="205.121,1139.5 2352.76,1139.5 "></polyline>
<polyline clip-path="url(#clip782)" style="stroke:#000000; stroke-linecap:round; stroke-linejoin:round; stroke-width:2; stroke-opacity:0.1; fill:none" points="205.121,892.606 2352.76,892.606 "></polyline>
<polyline clip-path="url(#clip782)" style="stroke:#000000; stroke-linecap:round; stroke-linejoin:round; stroke-width:2; stroke-opacity:0.1; fill:none" points="205.121,645.711 2352.76,645.711 "></polyline>
<polyline clip-path="url(#clip782)" style="stroke:#000000; stroke-linecap:round; stroke-linejoin:round; stroke-width:2; stroke-opacity:0.1; fill:none" points="205.121,398.816 2352.76,398.816 "></polyline>
<polyline clip-path="url(#clip782)" style="stroke:#000000; stroke-linecap:round; stroke-linejoin:round; stroke-width:2; stroke-opacity:0.1; fill:none" points="205.121,151.921 2352.76,151.921 "></polyline>
<polyline clip-path="url(#clip780)" style="stroke:#000000; stroke-linecap:round; stroke-linejoin:round; stroke-width:4; stroke-opacity:1; fill:none" points="205.121,1423.18 205.121,123.472 "></polyline>
<polyline clip-path="url(#clip780)" style="stroke:#000000; stroke-linecap:round; stroke-linejoin:round; stroke-width:4; stroke-opacity:1; fill:none" points="205.121,1386.4 224.019,1386.4 "></polyline>
<polyline clip-path="url(#clip780)" style="stroke:#000000; stroke-linecap:round; stroke-linejoin:round; stroke-width:4; stroke-opacity:1; fill:none" points="205.121,1139.5 224.019,1139.5 "></polyline>
<polyline clip-path="url(#clip780)" style="stroke:#000000; stroke-linecap:round; stroke-linejoin:round; stroke-width:4; stroke-opacity:1; fill:none" points="205.121,892.606 224.019,892.606 "></polyline>
<polyline clip-path="url(#clip780)" style="stroke:#000000; stroke-linecap:round; stroke-linejoin:round; stroke-width:4; stroke-opacity:1; fill:none" points="205.121,645.711 224.019,645.711 "></polyline>
<polyline clip-path="url(#clip780)" style="stroke:#000000; stroke-linecap:round; stroke-linejoin:round; stroke-width:4; stroke-opacity:1; fill:none" points="205.121,398.816 224.019,398.816 "></polyline>
<polyline clip-path="url(#clip780)" style="stroke:#000000; stroke-linecap:round; stroke-linejoin:round; stroke-width:4; stroke-opacity:1; fill:none" points="205.121,151.921 224.019,151.921 "></polyline>
<path clip-path="url(#clip780)" d="M157.177 1372.19 Q153.566 1372.19 151.737 1375.76 Q149.931 1379.3 149.931 1386.43 Q149.931 1393.54 151.737 1397.1 Q153.566 1400.64 157.177 1400.64 Q160.811 1400.64 162.616 1397.1 Q164.445 1393.54 164.445 1386.43 Q164.445 1379.3 162.616 1375.76 Q160.811 1372.19 157.177 1372.19 M157.177 1368.49 Q162.987 1368.49 166.042 1373.1 Q169.121 1377.68 169.121 1386.43 Q169.121 1395.16 166.042 1399.76 Q162.987 1404.35 157.177 1404.35 Q151.366 1404.35 148.288 1399.76 Q145.232 1395.16 145.232 1386.43 Q145.232 1377.68 148.288 1373.1 Q151.366 1368.49 157.177 1368.49 Z" fill="#000000" fill-rule="nonzero" fill-opacity="1"></path><path clip-path="url(#clip780)" d="M117.825 1152.85 L125.464 1152.85 L125.464 1126.48 L117.154 1128.15 L117.154 1123.89 L125.418 1122.22 L130.093 1122.22 L130.093 1152.85 L137.732 1152.85 L137.732 1156.78 L117.825 1156.78 L117.825 1152.85 Z" fill="#000000" fill-rule="nonzero" fill-opacity="1"></path><path clip-path="url(#clip780)" d="M157.177 1125.3 Q153.566 1125.3 151.737 1128.86 Q149.931 1132.41 149.931 1139.54 Q149.931 1146.64 151.737 1150.21 Q153.566 1153.75 157.177 1153.75 Q160.811 1153.75 162.616 1150.21 Q164.445 1146.64 164.445 1139.54 Q164.445 1132.41 162.616 1128.86 Q160.811 1125.3 157.177 1125.3 M157.177 1121.6 Q162.987 1121.6 166.042 1126.2 Q169.121 1130.79 169.121 1139.54 Q169.121 1148.26 166.042 1152.87 Q162.987 1157.45 157.177 1157.45 Q151.366 1157.45 148.288 1152.87 Q145.232 1148.26 145.232 1139.54 Q145.232 1130.79 148.288 1126.2 Q151.366 1121.6 157.177 1121.6 Z" fill="#000000" fill-rule="nonzero" fill-opacity="1"></path><path clip-path="url(#clip780)" d="M121.043 905.951 L137.362 905.951 L137.362 909.886 L115.418 909.886 L115.418 905.951 Q118.08 903.196 122.663 898.566 Q127.269 893.914 128.45 892.571 Q130.695 890.048 131.575 888.312 Q132.478 886.553 132.478 884.863 Q132.478 882.108 130.533 880.372 Q128.612 878.636 125.51 878.636 Q123.311 878.636 120.857 879.4 Q118.427 880.164 115.649 881.715 L115.649 876.992 Q118.473 875.858 120.927 875.279 Q123.38 874.701 125.418 874.701 Q130.788 874.701 133.982 877.386 Q137.177 880.071 137.177 884.562 Q137.177 886.691 136.367 888.613 Q135.579 890.511 133.473 893.103 Q132.894 893.775 129.792 896.992 Q126.691 900.187 121.043 905.951 Z" fill="#000000" fill-rule="nonzero" fill-opacity="1"></path><path clip-path="url(#clip780)" d="M157.177 878.404 Q153.566 878.404 151.737 881.969 Q149.931 885.511 149.931 892.64 Q149.931 899.747 151.737 903.312 Q153.566 906.853 157.177 906.853 Q160.811 906.853 162.616 903.312 Q164.445 899.747 164.445 892.64 Q164.445 885.511 162.616 881.969 Q160.811 878.404 157.177 878.404 M157.177 874.701 Q162.987 874.701 166.042 879.307 Q169.121 883.891 169.121 892.64 Q169.121 901.367 166.042 905.974 Q162.987 910.557 157.177 910.557 Q151.366 910.557 148.288 905.974 Q145.232 901.367 145.232 892.64 Q145.232 883.891 148.288 879.307 Q151.366 874.701 157.177 874.701 Z" fill="#000000" fill-rule="nonzero" fill-opacity="1"></path><path clip-path="url(#clip780)" d="M131.181 644.357 Q134.538 645.074 136.413 647.343 Q138.311 649.611 138.311 652.945 Q138.311 658.06 134.792 660.861 Q131.274 663.662 124.793 663.662 Q122.617 663.662 120.302 663.222 Q118.01 662.806 115.556 661.949 L115.556 657.435 Q117.501 658.57 119.816 659.148 Q122.13 659.727 124.654 659.727 Q129.052 659.727 131.343 657.991 Q133.658 656.255 133.658 652.945 Q133.658 649.889 131.505 648.176 Q129.376 646.44 125.556 646.44 L121.529 646.44 L121.529 642.597 L125.742 642.597 Q129.191 642.597 131.019 641.232 Q132.848 639.843 132.848 637.25 Q132.848 634.588 130.95 633.176 Q129.075 631.741 125.556 631.741 Q123.635 631.741 121.436 632.158 Q119.237 632.574 116.598 633.454 L116.598 629.287 Q119.26 628.547 121.575 628.176 Q123.913 627.806 125.973 627.806 Q131.297 627.806 134.399 630.236 Q137.501 632.644 137.501 636.764 Q137.501 639.634 135.857 641.625 Q134.214 643.593 131.181 644.357 Z" fill="#000000" fill-rule="nonzero" fill-opacity="1"></path><path clip-path="url(#clip780)" d="M157.177 631.509 Q153.566 631.509 151.737 635.074 Q149.931 638.616 149.931 645.745 Q149.931 652.852 151.737 656.417 Q153.566 659.958 157.177 659.958 Q160.811 659.958 162.616 656.417 Q164.445 652.852 164.445 645.745 Q164.445 638.616 162.616 635.074 Q160.811 631.509 157.177 631.509 M157.177 627.806 Q162.987 627.806 166.042 632.412 Q169.121 636.996 169.121 645.745 Q169.121 654.472 166.042 659.079 Q162.987 663.662 157.177 663.662 Q151.366 663.662 148.288 659.079 Q145.232 654.472 145.232 645.745 Q145.232 636.996 148.288 632.412 Q151.366 627.806 157.177 627.806 Z" fill="#000000" fill-rule="nonzero" fill-opacity="1"></path><path clip-path="url(#clip780)" d="M129.862 385.61 L118.056 404.059 L129.862 404.059 L129.862 385.61 M128.635 381.536 L134.515 381.536 L134.515 404.059 L139.445 404.059 L139.445 407.948 L134.515 407.948 L134.515 416.096 L129.862 416.096 L129.862 407.948 L114.26 407.948 L114.26 403.434 L128.635 381.536 Z" fill="#000000" fill-rule="nonzero" fill-opacity="1"></path><path clip-path="url(#clip780)" d="M157.177 384.614 Q153.566 384.614 151.737 388.179 Q149.931 391.721 149.931 398.851 Q149.931 405.957 151.737 409.522 Q153.566 413.063 157.177 413.063 Q160.811 413.063 162.616 409.522 Q164.445 405.957 164.445 398.851 Q164.445 391.721 162.616 388.179 Q160.811 384.614 157.177 384.614 M157.177 380.911 Q162.987 380.911 166.042 385.517 Q169.121 390.101 169.121 398.851 Q169.121 407.577 166.042 412.184 Q162.987 416.767 157.177 416.767 Q151.366 416.767 148.288 412.184 Q145.232 407.577 145.232 398.851 Q145.232 390.101 148.288 385.517 Q151.366 380.911 157.177 380.911 Z" fill="#000000" fill-rule="nonzero" fill-opacity="1"></path><path clip-path="url(#clip780)" d="M117.061 134.641 L135.417 134.641 L135.417 138.576 L121.343 138.576 L121.343 147.048 Q122.362 146.701 123.38 146.539 Q124.399 146.354 125.418 146.354 Q131.205 146.354 134.584 149.525 Q137.964 152.696 137.964 158.113 Q137.964 163.692 134.492 166.793 Q131.019 169.872 124.7 169.872 Q122.524 169.872 120.255 169.502 Q118.01 169.131 115.603 168.391 L115.603 163.692 Q117.686 164.826 119.908 165.381 Q122.13 165.937 124.607 165.937 Q128.612 165.937 130.95 163.831 Q133.288 161.724 133.288 158.113 Q133.288 154.502 130.95 152.395 Q128.612 150.289 124.607 150.289 Q122.732 150.289 120.857 150.706 Q119.006 151.122 117.061 152.002 L117.061 134.641 Z" fill="#000000" fill-rule="nonzero" fill-opacity="1"></path><path clip-path="url(#clip780)" d="M157.177 137.72 Q153.566 137.72 151.737 141.284 Q149.931 144.826 149.931 151.956 Q149.931 159.062 151.737 162.627 Q153.566 166.168 157.177 166.168 Q160.811 166.168 162.616 162.627 Q164.445 159.062 164.445 151.956 Q164.445 144.826 162.616 141.284 Q160.811 137.72 157.177 137.72 M157.177 134.016 Q162.987 134.016 166.042 138.622 Q169.121 143.206 169.121 151.956 Q169.121 160.682 166.042 165.289 Q162.987 169.872 157.177 169.872 Q151.366 169.872 148.288 165.289 Q145.232 160.682 145.232 151.956 Q145.232 143.206 148.288 138.622 Q151.366 134.016 157.177 134.016 Z" fill="#000000" fill-rule="nonzero" fill-opacity="1"></path><path clip-path="url(#clip780)" d="M41.7242 815.053 Q42.4244 812.984 44.7161 811.043 Q47.0077 809.069 51.0181 807.096 L64.0042 800.571 L64.0042 807.478 L51.8138 813.557 Q47.0395 815.913 45.48 818.141 Q43.9204 820.337 43.9204 824.156 L43.9204 831.158 L64.0042 831.158 L64.0042 837.588 L16.4842 837.588 L16.4842 823.074 Q16.4842 814.926 19.8898 810.915 Q23.2955 806.905 30.1704 806.905 Q34.6582 806.905 37.6183 809.006 Q40.5784 811.075 41.7242 815.053 M21.7677 831.158 L38.6368 831.158 L38.6368 823.074 Q38.6368 818.427 36.5043 816.072 Q34.34 813.685 30.1704 813.685 Q26.0009 813.685 23.9002 816.072 Q21.7677 818.427 21.7677 823.074 L21.7677 831.158 Z" fill="#000000" fill-rule="nonzero" fill-opacity="1"></path><path clip-path="url(#clip780)" d="M28.3562 792.55 L28.3562 786.694 L64.0042 786.694 L64.0042 792.55 L28.3562 792.55 M14.479 792.55 L14.479 786.694 L21.895 786.694 L21.895 792.55 L14.479 792.55 Z" fill="#000000" fill-rule="nonzero" fill-opacity="1"></path><path clip-path="url(#clip780)" d="M29.4065 751.714 L34.9447 751.714 Q33.6716 754.197 33.035 756.871 Q32.3984 759.544 32.3984 762.409 Q32.3984 766.769 33.7352 768.965 Q35.072 771.13 37.7456 771.13 Q39.7826 771.13 40.9603 769.57 Q42.1061 768.011 43.1565 763.3 L43.6021 761.295 Q44.9389 755.056 47.3897 752.446 Q49.8086 749.805 54.1691 749.805 Q59.1344 749.805 62.0308 753.751 Q64.9272 757.666 64.9272 764.541 Q64.9272 767.406 64.3543 770.525 Q63.8132 773.612 62.6992 777.05 L56.6518 777.05 Q58.3387 773.803 59.198 770.652 Q60.0256 767.501 60.0256 764.414 Q60.0256 760.276 58.6251 758.048 Q57.1929 755.82 54.6147 755.82 Q52.2276 755.82 50.9545 757.444 Q49.6813 759.035 48.5037 764.478 L48.0262 766.515 Q46.8804 771.957 44.5251 774.376 Q42.138 776.795 38.0002 776.795 Q32.9713 776.795 30.2341 773.23 Q27.4968 769.666 27.4968 763.109 Q27.4968 759.863 27.9743 756.998 Q28.4517 754.133 29.4065 751.714 Z" fill="#000000" fill-rule="nonzero" fill-opacity="1"></path><path clip-path="url(#clip780)" d="M14.479 740.702 L14.479 734.813 L43.7294 734.813 L28.3562 717.34 L28.3562 709.86 L45.0344 728.766 L64.0042 709.064 L64.0042 716.703 L46.5939 734.813 L64.0042 734.813 L64.0042 740.702 L14.479 740.702 Z" fill="#000000" fill-rule="nonzero" fill-opacity="1"></path><path clip-path="url(#clip780)" d="M1198.81 51.4708 L1197.03 42.1132 Q1195.21 32.5126 1188 32.5126 Q1182.57 32.5126 1180.1 36.9686 Q1176.98 42.5588 1176.98 49.9314 Q1176.98 58.8434 1180.02 63.0969 Q1183.09 67.4314 1188 67.4314 Q1193.42 67.4314 1196.34 58.8029 L1198.81 51.4708 M1202.98 39.075 L1206.99 27.2059 L1213.64 27.2059 L1205.33 51.7949 L1206.95 60.6663 Q1207.32 62.6513 1208.74 64.3122 Q1210.4 66.2566 1211.69 66.2566 L1215.26 66.2566 L1215.26 72.576 L1210.8 72.576 Q1206.99 72.576 1203.59 69.1732 Q1201.93 67.4719 1201.24 63.9071 Q1199.38 68.4036 1195.57 71.9279 Q1193.79 73.5887 1188 73.5887 Q1178.48 73.5887 1173.86 67.4314 Q1169.12 61.0714 1169.12 49.9314 Q1169.12 38.0218 1174.26 32.4315 Q1179.97 26.1931 1188 26.1931 Q1200.59 26.1931 1202.98 39.075 Z" fill="#000000" fill-rule="nonzero" fill-opacity="1"></path><path clip-path="url(#clip780)" d="M1254.39 34.9026 L1306.32 34.9026 L1306.32 41.7081 L1254.39 41.7081 L1254.39 34.9026 M1254.39 51.4303 L1306.32 51.4303 L1306.32 58.3168 L1254.39 58.3168 L1254.39 51.4303 Z" fill="#000000" fill-rule="nonzero" fill-opacity="1"></path><path clip-path="url(#clip780)" d="M1367.86 17.4837 Q1361.54 17.4837 1358.34 23.7221 Q1355.18 29.92 1355.18 42.3968 Q1355.18 54.833 1358.34 61.0714 Q1361.54 67.2693 1367.86 67.2693 Q1374.22 67.2693 1377.38 61.0714 Q1380.58 54.833 1380.58 42.3968 Q1380.58 29.92 1377.38 23.7221 Q1374.22 17.4837 1367.86 17.4837 M1367.86 11.0023 Q1378.02 11.0023 1383.37 19.0636 Q1388.76 27.0843 1388.76 42.3968 Q1388.76 57.6687 1383.37 65.73 Q1378.02 73.7508 1367.86 73.7508 Q1357.69 73.7508 1352.3 65.73 Q1346.95 57.6687 1346.95 42.3968 Q1346.95 27.0843 1352.3 19.0636 Q1357.69 11.0023 1367.86 11.0023 Z" fill="#000000" fill-rule="nonzero" fill-opacity="1"></path><polyline clip-path="url(#clip782)" style="stroke:#009af9; stroke-linecap:round; stroke-linejoin:round; stroke-width:4; stroke-opacity:1; fill:none" points="265.903,1386.4 498.309,1386.4 594.575,1386.4 668.443,1386.4 730.716,1386.4 785.579,1386.4 835.18,1386.4 880.792,1386.4 923.247,1386.38 963.122,1386.05 1000.84,1379.99 1036.71,1362.64 1070.98,1336.68 1103.86,1311.42 1135.49,1293.58 1166.01,1282.65 1195.53,1274.68 1224.14,1266.87 1251.92,1258.38 1278.94,1248.9 1305.96,1237.93 1333.74,1224.66 1362.35,1208.27 1391.87,1187.46 1422.39,1160.18 1454.02,1122.12 1486.89,1063.3 1521.17,891.593 1557.04,440.187 1594.76,202.621 1634.63,160.256 1677.08,181.161 1722.7,382.243 1772.3,794.759 1827.16,1071.75 1889.43,1172.23 1963.3,1224.3 2059.57,1263.99 2291.97,1337.39 "></polyline>
<path clip-path="url(#clip780)" d="M2013.97 270.476 L2281.17 270.476 L2281.17 166.796 L2013.97 166.796  Z" fill="#ffffff" fill-rule="evenodd" fill-opacity="1"></path>
<polyline clip-path="url(#clip780)" style="stroke:#000000; stroke-linecap:round; stroke-linejoin:round; stroke-width:4; stroke-opacity:1; fill:none" points="2013.97,270.476 2281.17,270.476 2281.17,166.796 2013.97,166.796 2013.97,270.476 "></polyline>
<polyline clip-path="url(#clip780)" style="stroke:#009af9; stroke-linecap:round; stroke-linejoin:round; stroke-width:4; stroke-opacity:1; fill:none" points="2037.84,218.636 2181.01,218.636 "></polyline>
<path clip-path="url(#clip780)" d="M2218.72 238.323 Q2216.91 242.953 2215.2 244.365 Q2213.49 245.777 2210.62 245.777 L2207.21 245.777 L2207.21 242.212 L2209.71 242.212 Q2211.47 242.212 2212.44 241.379 Q2213.42 240.545 2214.6 237.443 L2215.36 235.499 L2204.88 209.99 L2209.39 209.99 L2217.49 230.268 L2225.59 209.99 L2230.11 209.99 L2218.72 238.323 Z" fill="#000000" fill-rule="nonzero" fill-opacity="1"></path><path clip-path="url(#clip780)" d="M2237.4 231.981 L2245.04 231.981 L2245.04 205.615 L2236.73 207.282 L2236.73 203.022 L2244.99 201.356 L2249.67 201.356 L2249.67 231.981 L2257.31 231.981 L2257.31 235.916 L2237.4 235.916 L2237.4 231.981 Z" fill="#000000" fill-rule="nonzero" fill-opacity="1"></path></svg>